:version 1.10
:name ASF
:units
  mass 1
  length 1
  angle deg
:documentation
  ASF file generated by Kaydara
:root
  axis xyz
  order  tx ty tz rx ry rz
  position 0 0 0
  orientation 0 0 0
:bonedata
  begin
    id 1
    name lfemurDummy
    direction 0.61522 -0.761478 0.204097
    length 5.68318
    axis 0 -0 0 xyz
  end
  begin
    id 2
    name lfemur
    direction 0.34202 -0.939693 -5.84747e-008
    length 16.9147
    axis 0 -0 20 xyz
    dof rx ry rz
    limits( -inf , inf )
( -inf , inf )
( -inf , inf )

  end
  begin
    id 3
    name ltibia
    direction 0.34202 -0.939693 1.20839e-009
    length 18.0532
    axis 0 -0 20 xyz
    dof rz ry rx
    limits( -inf , inf )
( -inf , inf )
( -inf , inf )

  end
  begin
    id 4
    name lfoot
    direction 0.0841971 -0.23133 0.969225
    length 5.23822
    axis -90 7.62852e-016 20 xyz
    dof ry rx rz
    limits( -inf , inf )
( -inf , inf )
( -inf , inf )

  end
  begin
    id 5
    name ltoes
    direction 0 0 0
    length 0
    axis 0 0 0 xyz
    dof rz ry rx
    limits( -inf , inf )
( -inf , inf )
( -inf , inf )

  end
  begin
    id 6
    name rfemurDummy
    direction -0.625247 -0.75382 0.202044
    length 5.74091
    axis 0 -0 0 xyz
  end
  begin
    id 7
    name rfemur
    direction -0.34202 -0.939693 -1.47013e-008
    length 16.4922
    axis 0 -0 -20 xyz
    dof rx ry rz
    limits( -inf , inf )
( -inf , inf )
( -inf , inf )

  end
  begin
    id 8
    name rtibia
    direction -0.34202 -0.939693 -7.74345e-010
    length 18.2421
    axis 0 -0 -20 xyz
    dof rz ry rx
    limits( -inf , inf )
( -inf , inf )
( -inf , inf )

  end
  begin
    id 9
    name rfoot
    direction -0.124331 -0.341598 0.931586
    length 5.45787
    axis -90 -7.62852e-016 -20 xyz
    dof ry rx rz
    limits( -inf , inf )
( -inf , inf )
( -inf , inf )

  end
  begin
    id 10
    name rtoes
    direction 0 0 0
    length 0
    axis 0 0 0 xyz
    dof rz ry rx
    limits( -inf , inf )
( -inf , inf )
( -inf , inf )

  end
  begin
    id 11
    name lowerbackDummy
    direction 0 0 0
    length 0
    axis 0 -0 0 xyz
  end
  begin
    id 12
    name lowerback
    direction -0.0218484 0.994884 -0.0986304
    length 4.45607
    axis 0 -0 0 xyz
    dof rx ry rz
    limits( -inf , inf )
( -inf , inf )
( -inf , inf )

  end
  begin
    id 13
    name upperback
    direction -0.00973057 0.999717 -0.0217111
    length 4.47449
    axis 0 -0 0 xyz
    dof rx ry rz
    limits( -inf , inf )
( -inf , inf )
( -inf , inf )

  end
  begin
    id 14
    name thorax
    direction -0.000928171 0.999699 0.0245198
    length 4.50973
    axis 0 -0 0 xyz
    dof rx ry rz
    limits( -inf , inf )
( -inf , inf )
( -inf , inf )

  end
  begin
    id 15
    name rclavicle
    direction -0.9009 0.425937 -0.0834055
    length 7.28587
    axis 0 -0 0 xyz
    dof rx ry rz
    limits( -inf , inf )
( -inf , inf )
( -inf , inf )

  end
  begin
    id 16
    name rhumerus
    direction -1 -2.23604e-007 -1.42637e-007
    length 13.5704
    axis 180 30 90 xyz
    dof rx ry rz
    limits( -inf , inf )
( -inf , inf )
( -inf , inf )

  end
  begin
    id 17
    name rradius
    direction -1 5.68281e-008 -4.4952e-007
    length 8.06782
    axis 180 30 90 xyz
    dof rz ry rx
    limits( -inf , inf )
( -inf , inf )
( -inf , inf )

  end
  begin
    id 18
    name rwrist
    direction -1 1.51393e-007 1.38143e-007
    length 4.03391
    axis -90 -90 0 xyz
    dof rz rx ry
    limits( -inf , inf )
( -inf , inf )
( -inf , inf )

  end
  begin
    id 19
    name rthumb
    direction 0 0 0
    length 0
    axis 0 0 0 xyz
    dof ry rx rz
    limits( -inf , inf )
( -inf , inf )
( -inf , inf )

  end
  begin
    id 20
    name rhand
    direction -1 -3.34077e-007 -5.59631e-007
    length 1.29744
    axis -90 -90 0 xyz
    dof ry rx rz
    limits( -inf , inf )
( -inf , inf )
( -inf , inf )

  end
  begin
    id 21
    name rfingers
    direction 0 0 0
    length 0
    axis 0 0 0 xyz
    dof rz ry rx
    limits( -inf , inf )
( -inf , inf )
( -inf , inf )

  end
  begin
    id 22
    name lclavicle
    direction 0.940017 0.332249 -0.0773232
    length 8.29589
    axis 0 -0 0 xyz
    dof rx ry rz
    limits( -inf , inf )
( -inf , inf )
( -inf , inf )

  end
  begin
    id 23
    name lhumerus
    direction 1 7.41158e-008 -1.44768e-008
    length 12.0042
    axis 180 -30 -90 xyz
    dof rx ry rz
    limits( -inf , inf )
( -inf , inf )
( -inf , inf )

  end
  begin
    id 24
    name lradius
    direction 1 -1.32972e-007 3.10821e-007
    length 8.1902
    axis 180 -30 -90 xyz
    dof rz ry rx
    limits( -inf , inf )
( -inf , inf )
( -inf , inf )

  end
  begin
    id 25
    name lwrist
    direction 1 3.08957e-007 4.01394e-007
    length 4.09509
    axis -90 90 0 xyz
    dof rz rx ry
    limits( -inf , inf )
( -inf , inf )
( -inf , inf )

  end
  begin
    id 26
    name lthumb
    direction 0 0 0
    length 0
    axis 0 0 0 xyz
    dof ry rx rz
    limits( -inf , inf )
( -inf , inf )
( -inf , inf )

  end
  begin
    id 27
    name lhand
    direction 1 -1.64125e-007 -6.99514e-007
    length 1.37229
    axis -90 90 0 xyz
    dof ry rx rz
    limits( -inf , inf )
( -inf , inf )
( -inf , inf )

  end
  begin
    id 28
    name lfingers
    direction 0 0 0
    length 0
    axis 0 0 0 xyz
    dof rz ry rx
    limits( -inf , inf )
( -inf , inf )
( -inf , inf )

  end
  begin
    id 29
    name lowerneck
    direction -0.030798 0.998024 0.0547665
    length 3.93918
    axis 0 -0 0 xyz
    dof rx ry rz
    limits( -inf , inf )
( -inf , inf )
( -inf , inf )

  end
  begin
    id 30
    name upperneck
    direction 0.0531588 0.996611 -0.0627736
    length 3.95491
    axis 0 -0 0 xyz
    dof rx ry rz
    limits( -inf , inf )
( -inf , inf )
( -inf , inf )

  end
  begin
    id 31
    name head
    direction 0 0 0
    length 0
    axis 0 0 0 xyz
    dof rx ry rz
    limits( -inf , inf )
( -inf , inf )
( -inf , inf )

  end
:hierarchy
  begin
    root lfemurDummy rfemurDummy lowerbackDummy
    lfemurDummy lfemur
    lfemur ltibia
    ltibia lfoot
    lfoot ltoes
    rfemurDummy rfemur
    rfemur rtibia
    rtibia rfoot
    rfoot rtoes
    lowerbackDummy lowerback
    lowerback upperback
    upperback thorax
    thorax rclavicle lclavicle lowerneck
    rclavicle rhumerus
    rhumerus rradius
    rradius rwrist
    rwrist rthumb rhand
    rhand rfingers
    lclavicle lhumerus
    lhumerus lradius
    lradius lwrist
    lwrist lthumb lhand
    lhand lfingers
    lowerneck upperneck
    upperneck head
  end

:SAMPLES-PER-SECOND 30
:FULLY-SPECIFIED
:DEGREES
106
root  4.696622233 35.94889003 0.3956133456 174.6619873 -67.23509979 169.9500122
lowerback  5.572800159 4.380380154 0.07577770203
upperback  2.068000078 5.763559818 -1.308769941
thorax  -0.840166986 2.86123991 -1.734519958
lowerneck  -10.1498003 9.327150345 -1.506119967
upperneck  23.4510994 11.61779976 5.734489918
head  8.504130363 5.772409916 3.294950008
lclavicle  0 -9.442270133e-015 7.951389973e-016
lhumerus  -9.549260139 -14.51469994 80.03659821
lradius  2.163374677e-031 -2.790816018e-031 127.7819977
lwrist  -7.062250077e-031 -0 11.74400043
lhand  -1.496451383e-031 -27.76390076 20.11240005
lfingers  90 7.125020027 -90
lthumb  89.89689403 5.08795885 91.16245106
rclavicle  0 -9.442270133e-015 7.951389973e-016
rhumerus  4.74075985 30.65320015 -81.63890076
rradius  -1.497956897e-031 3.197650571e-031 115.1009979
rwrist  0 -1.765562519e-031 -8.8207798
rhand  -7.920061211e-032 -33.2840004 9.303460121
rfingers  -90 -7.125020027 -90
rthumb  -92.93752616 -24.25625642 -97.11982154
rfemur  2.179399967 12.46640015 6.094349861
rtibia  -0 0 66.9464035
rfoot  -0 -27.67510033 -9.185279846
rtoes  5.373923086 19.29304026 -105.8922705
lfemur  -10.64430046 -7.863269806 0.8043789864
ltibia  -0 0 54.36989975
lfoot  -0 -12.43589973 -11.73169994
ltoes  -4.250644065 -19.5611806 -102.515957
107
root  4.402555631 35.71066669 0.3993733192 173.7039795 -67.69709778 170.0930176
lowerback  4.881219864 4.354599953 0.04932010174
upperback  1.853170037 5.741250038 -1.347049952
thorax  -0.6766740084 2.854579926 -1.709849954
lowerneck  -10.48890018 9.377960205 -1.991619945
upperneck  23.97439957 11.64309978 6.349440098
head  8.665519714 5.797339916 3.616130114
lclavicle  0 -9.442270133e-015 7.951389973e-016
lhumerus  -9.118040085 -14.71030045 80.80729675
lradius  2.126019016e-031 -2.819377091e-031 127.0189972
lwrist  -7.062250077e-031 -1.765562519e-031 11.18690014
lhand  -1.496451383e-031 -27.76390076 20.11240005
lfingers  90 7.125020027 -90
lthumb  89.89689403 5.08795885 91.16245106
rclavicle  0 -9.442270133e-015 7.951389973e-016
rhumerus  4.204909801 30.45549965 -81.9292984
rradius  -1.482312472e-031 3.204932725e-031 114.8209991
rwrist  1.412450015e-030 -1.765562519e-031 -9.344129562
rhand  -7.920061211e-032 -33.2840004 9.303460121
rfingers  -90 -7.125020027 -90
rthumb  -92.93752616 -24.25625642 -97.11982154
rfemur  4.311049938 12.41090012 6.834740162
rtibia  -0 0 66.5114975
rfoot  -0 -29.33550072 -11.03740025
rtoes  5.373923086 19.29304026 -105.8922705
lfemur  -9.922140121 -7.460189819 0.8593739867
ltibia  -0 0 55.29980087
lfoot  -0 -13.54440022 -12.82820034
ltoes  -4.250644065 -19.5611806 -102.515957
108
root  4.127844488 35.50266656 0.3975311133 172.6359863 -68.14299774 170.1760254
lowerback  4.421010017 4.376820087 -0.06562370062
upperback  1.622410059 5.773900032 -1.397959948
thorax  -0.6632379889 2.872760057 -1.672839999
lowerneck  -10.59749985 9.478360176 -2.250499964
upperneck  24.50810051 11.69489956 6.906809807
head  8.806920052 5.845270157 3.875459909
lclavicle  0 -9.442270133e-015 7.951389973e-016
lhumerus  -8.512350082 -14.78709984 81.45429993
lradius  2.083960376e-031 -2.850605758e-031 126.1689987
lwrist  -7.062250077e-031 -0 11.04440022
lhand  -1.496451383e-031 -27.76390076 20.11240005
lfingers  90 7.125020027 -90
lthumb  89.89689403 5.08795885 91.16245106
rclavicle  0 -9.442270133e-015 7.951389973e-016
rhumerus  3.610929966 30.0734005 -82.40809631
rradius  -1.461080338e-031 3.214667679e-031 114.4420013
rwrist  1.412450015e-030 -1.765562519e-031 -9.308380127
rhand  -7.920061211e-032 -33.2840004 9.303460121
rfingers  -90 -7.125020027 -90
rthumb  -92.93752616 -24.25625642 -97.11982154
rfemur  6.417650223 12.33500004 7.502570152
rtibia  -0 0 66.22429657
rfoot  -0 -30.13660049 -13.18929958
rtoes  5.373923086 19.29304026 -105.8922705
lfemur  -9.258259773 -6.899559975 0.9249460101
ltibia  -0 0 56.50279999
lfoot  -0 -14.17230034 -13.47210026
ltoes  -4.250644065 -19.5611806 -102.515957
109
root  3.873555491 35.321111 0.386160002 170.7420044 -68.56539917 170.7800293
lowerback  4.366889954 4.461160183 0.01658860035
upperback  1.435600042 5.891749859 -1.424460053
thorax  -0.8106409907 2.93204999 -1.75533998
lowerneck  -10.43620014 9.596150398 -2.113260031
upperneck  24.98250008 11.7507 7.167180061
head  8.928290367 5.895440102 3.959810019
lclavicle  0 -9.442270133e-015 7.951389973e-016
lhumerus  -7.763730049 -15.06630039 82.08059692
lradius  2.036058764e-031 -2.885014514e-031 125.211998
lwrist  -1.412450015e-030 -1.765562519e-031 11.16549969
lhand  -1.496451383e-031 -27.76390076 20.11240005
lfingers  90 7.125020027 -90
lthumb  89.89689403 5.08795885 91.16245106
rclavicle  0 -9.442270133e-015 7.951389973e-016
rhumerus  2.904289961 29.45739937 -83.10900116
rradius  -1.442147385e-031 3.223205696e-031 114.1050034
rwrist  7.062250077e-031 -0 -9.019949913
rhand  -7.920061211e-032 -33.2840004 9.303460121
rfingers  -90 -7.125020027 -90
rthumb  -92.93752616 -24.25625642 -97.11982154
rfemur  8.648839951 12.37479973 8.522450447
rtibia  -0 0 66.14969635
rfoot  -0 -30.31669998 -15.45069981
rtoes  5.373923086 19.29304026 -105.8922705
lfemur  -8.46282959 -6.194109917 1.235649943
ltibia  -0 0 57.957901
lfoot  -0 -14.55179977 -13.41460037
ltoes  -4.250644065 -19.5611806 -102.515957
